<svg width="82" height="93" viewBox="0 0 82 93" fill="none" xmlns="http://www.w3.org/2000/svg">
<path d="M36.4543 20.3965C34.013 18.8867 32.7049 18.0641 31.5879 15.2259C30.5322 12.5445 30.3193 9.535 31.4406 6.82123C32.6461 3.90441 35.8492 1.94987 38.669 0.826119C42.3015 -0.621409 47.4406 -0.0471381 50.9468 1.62178C53.958 3.05486 56.1085 4.73175 57.2892 7.97344C58.1999 10.474 57.938 13.9209 56.7835 16.2997C55.4873 18.9701 53.9893 19.8061 51.3268 20.7494C54.376 21.7535 57.0165 24.2278 58.9581 26.7089L59.2549 26.2608C59.5707 24.5656 60.3616 24.8182 61.8294 24.6949C66.4889 24.3037 70.5933 25.344 69.2701 31.0481C69.2072 31.3139 69.1378 31.5784 69.0621 31.8409C70.673 34.4568 73.5672 39.5453 73.3581 42.8376C73.306 43.6568 72.5129 43.8484 71.7746 43.5662L71.6062 43.7947C74.0898 46.7954 74.9967 47.2697 74.7337 51.1826C76.4509 51.4404 79.6727 51.6784 80.8624 53.1611C81.5251 53.9871 81.6803 56.1305 81.4966 57.1734C81.3293 58.1251 79.9814 58.5442 79.1847 58.81C79.0816 61.0183 78.4203 65.4921 78.0624 67.8573C79.3983 68.222 81.0692 68.5672 81.7986 69.836C82.8687 71.6974 79.3737 71.9682 78.3621 72.0613C75.5599 72.3191 72.7418 72.3719 69.9455 72.2053L69.6616 73.3665C71.5286 73.4857 73.3038 73.4722 75.2045 73.4043C77.07 73.3331 80.9293 73.7468 80.8385 76.3056C80.7715 78.1985 79.0303 79.1987 77.4627 79.8189C76.5237 80.1905 75.0387 80.621 74.9824 78.9665C75.4345 77.6434 78.1232 78.0605 78.7376 76.6002C78.7119 76.1372 78.788 76.3304 78.5626 75.9792C76.6768 74.8578 71.8865 75.9061 68.8565 75.1991C68.1746 76.669 67.4374 77.7568 66.7831 79.0859C68.2945 79.2103 70.4034 79.5578 71.4838 80.7076C72.137 81.4028 71.3909 82.3897 70.703 82.6863C67.4316 84.0966 63.1407 84.2488 59.6121 84.7734C57.1411 85.1408 54.536 84.8142 52.0598 84.9403C47.1873 85.0479 42.3653 84.8633 37.6088 83.6991C36.5843 83.4484 35.1458 82.7385 35.498 81.4613C35.8774 80.0847 38.2538 80.3492 39.0639 79.7033C39.1051 79.3461 39.1318 79.5276 38.8706 79.1633C38.2629 78.7932 36.8863 79.1319 36.1538 79.0892C31.263 78.8042 20.2353 80.3759 18.6573 73.9391C18.5312 73.4025 18.467 72.8531 18.4663 72.3019C18.3866 72.8457 18.4875 72.7759 18.1706 73.0609C17.7522 73.1268 17.5495 73.0982 17.1212 73.0727C15.7026 75.3023 7.03767 74.0762 4.73413 73.0031C4.01155 72.6664 2.81753 71.9686 2.60089 71.1624C2.02468 69.0162 5.69556 68.2604 7.16421 67.814C5.33966 66.025 3.95314 64.3097 3.10963 61.8609C2.74015 60.7885 2.61361 60.0603 3.82918 59.7259C3.43858 59.1461 3.47415 58.9208 3.56274 58.2096L3.6272 57.8397C3.52416 57.9221 3.42457 58.0094 3.31398 58.0816C3.10984 58.215 2.86711 58.2323 2.63387 58.1674C2.32863 58.0822 2.12535 57.8669 1.96324 57.608C0.476696 55.2333 0.413753 44.8613 0.740767 41.7389C0.852861 40.6675 1.17966 39.572 1.42778 38.5233C0.593969 36.4898 -0.297831 34.4202 0.0960085 32.1764C0.352963 30.7129 2.25512 29.0463 3.80547 29.3345C4.2808 29.4229 4.43729 29.732 4.68951 30.1041L4.88029 29.8465C4.89085 29.4337 4.87727 28.9711 4.85873 28.5714C4.67507 24.616 5.41683 22.1747 7.53434 18.8942C8.39143 17.5663 8.58027 17.0072 9.76135 15.7289C11.928 13.3841 14.6349 12.4385 17.7811 12.4085C19.9945 12.3874 23.2793 13.1647 24.8859 14.8243C25.6589 15.623 26.0079 16.207 26.6092 17.0908C28.2938 19.5679 28.8937 21.0283 28.9172 23.9995C31.5223 21.9971 33.2546 21.1185 36.4543 20.3965Z" fill="black"/>
<path d="M59.3297 46.2727C57.1689 52.1686 51.4986 56.4543 45.1817 56.8415C40.6768 57.1174 35.1811 56.8893 31.6111 53.8203C30.6624 53.0048 30.0483 51.8696 30.0258 50.6025C29.9644 47.5699 31.7471 46.8439 33.6534 45.1123C33.8787 44.9075 34.0108 44.6273 33.9908 44.302C33.5249 43.4444 32.116 43.3218 31.0323 42.4356C28.9435 40.727 27.8482 39.3998 27.5035 36.6677C27.0713 33.7765 27.7594 31.7366 28.8292 29.1354C30.0599 26.1437 31.9937 23.6719 35.468 23.3401C37.7084 23.1263 40.0096 23.3241 41.7692 24.9055C42.4379 25.5065 43.7356 27.0433 44.5725 26.937C45.2664 26.4561 45.4339 25.3785 45.8661 24.5593C46.3455 23.6402 47.191 22.9665 48.194 22.7042C51.4182 21.8423 54.6774 25.1034 56.7367 27.2011C57.1081 27.5794 58.6336 30.6211 59.7414 28.67C59.9699 28.2677 59.2275 27.1472 58.9581 26.709L59.2549 26.2608C59.7337 26.7745 59.924 26.8676 60.6449 26.8599C62.702 26.8379 65.3485 26.103 67.0875 27.5762C67.4973 27.9235 67.7909 30.0567 67.2425 30.371C66.7193 30.6709 66.3039 30.5353 65.9103 31.1416C65.9334 31.6879 66.1588 31.9371 66.5188 32.3329C66.1586 32.6898 64.4735 32.7414 63.8402 32.916C63.3354 33.055 62.6059 33.3029 62.1239 33.4163C61.8859 32.5515 61.5692 30.6795 60.3651 31.003C60.0911 31.0765 59.713 31.3926 59.7128 31.6991C59.7106 33.3575 60.616 34.8916 60.5397 36.5931C60.5244 38.9645 60.0993 40.057 58.6306 41.9141C58.1861 42.4763 57.669 43.0058 57.3439 43.6128C57.4291 44.2248 58.8606 45.466 59.3297 46.2727Z" fill="#FEFEFD"/>
<path d="M49.1222 30.6909C50.7187 30.7653 50.8611 32.9345 51.1325 34.1796C51.7704 37.1081 52.058 39.7296 51.8883 42.7318C54.088 42.9417 54.8838 43.4326 55.4809 45.6057C55.1091 47.5309 53.5534 48.36 51.7549 48.7187C50.4337 48.7545 48.7658 49.0192 47.7492 48.1267C45.3161 45.9911 47.4179 43.1771 50.0588 42.837C49.8874 41.5608 49.8547 39.7621 49.7038 38.361C49.5188 36.6431 48.4602 32.8489 48.4697 31.4348C48.591 31.0718 48.8225 30.9401 49.1222 30.6909Z" fill="black"/>
<path d="M41.3478 31.6881C41.4453 31.6778 41.5429 31.6663 41.6408 31.6618C42.0148 31.6446 42.2696 31.678 42.5449 31.9642C43.6973 33.1624 44.5908 41.444 44.4781 43.2356C44.4319 43.9676 44.3669 44.3459 43.8014 44.843C42.0077 45.2651 42.496 43.3511 42.4496 42.2301C42.3664 40.2159 42.0911 38.1691 41.7397 36.1824C41.5313 35.0052 40.9639 33.7875 40.9031 32.5728C40.882 32.1466 41.0836 31.9621 41.3478 31.6881Z" fill="black"/>
<path d="M35.6212 48.9267C37.239 48.9329 37.0722 51.3673 38.8146 52.3919C39.7174 52.9906 41.0183 53.3085 42.1022 53.1757C42.9776 53.0684 44.0266 52.2764 44.886 52.9328C45.2665 53.6245 45.0014 54.0833 44.4902 54.5743C43.603 55.0727 42.6088 55.2221 41.6042 55.2156C39.6756 55.2092 37.831 54.4267 36.4858 53.0447C35.7465 52.2813 34.896 51.0425 34.9734 49.9537C35.0137 49.3846 35.2028 49.2832 35.6212 48.9267Z" fill="black"/>
<path d="M1.42778 38.5233C0.593969 36.4898 -0.297831 34.4202 0.0960085 32.1764C0.352963 30.7129 2.25512 29.0463 3.80547 29.3346C4.2808 29.4229 4.43729 29.7321 4.68951 30.1041L4.88029 29.8465C5.51211 34.0714 6.57421 37.6065 10.8282 39.3838C14.8334 40.7369 18.8671 39.6658 22.3603 37.5459C22.0904 39.5287 21.9061 41.7081 22.0667 43.7094C22.1305 44.505 22.5556 45.2914 22.5856 46.141L22.4707 46.189C22.0432 45.9084 22.2661 45.9651 21.7921 45.9653C21.1277 46.3085 20.8923 46.7879 21.1152 47.5275C21.8505 47.9929 22.8499 48.2559 23.4416 48.6836C25.676 50.299 27.9189 52.8593 28.9224 55.4114C28.4531 55.5767 26.4787 55.0734 25.6859 55.0658C21.0639 55.0227 16.5069 55.2208 11.9838 56.2499C10.072 56.6849 8.02108 56.9434 6.10254 57.384C5.24631 57.5423 4.27735 58.1577 3.56274 58.2096L3.6272 57.8397C3.52416 57.9221 3.42457 58.0094 3.31398 58.0816C3.10984 58.215 2.86711 58.2323 2.63387 58.1674C2.32863 58.0823 2.12535 57.8669 1.96324 57.608C0.476696 55.2333 0.413753 44.8614 0.740767 41.7389C0.852861 40.6675 1.17966 39.572 1.42778 38.5233Z" fill="#FAE04E"/>
<path d="M2.80298 50.8651L2.91464 50.4883C3.60877 49.8332 4.76011 49.7982 5.63596 49.4678C11.06 47.4207 15.4559 47.5165 21.1151 47.5275C21.8504 47.9929 22.8498 48.2559 23.4415 48.6835C25.6759 50.299 27.9188 52.8593 28.9223 55.4114C28.453 55.5767 26.4786 55.0733 25.6858 55.0658C21.0638 55.0227 16.5067 55.2208 11.9837 56.2499C10.0719 56.6849 8.02098 56.9434 6.10244 57.384C5.24621 57.5422 4.27724 58.1577 3.56264 58.2096L3.62709 57.8397C3.74242 57.6627 3.85516 57.4122 3.79717 57.1984C3.2132 55.0486 2.93124 53.0919 2.80298 50.8651Z" fill="#FEFEFD"/>
<path d="M1.42778 38.5233C0.593969 36.4898 -0.297831 34.4202 0.0960085 32.1764C0.352963 30.7129 2.25512 29.0463 3.80547 29.3346C4.2808 29.4229 4.43729 29.7321 4.68951 30.1041L4.88029 29.8465C5.51211 34.0714 6.57421 37.6065 10.8282 39.3838C10.0785 39.8622 7.89799 40.129 6.91846 40.3237C5.93419 40.5194 4.06933 41.2276 3.17085 41.2543C3.06199 41.2043 2.96088 41.1773 2.89169 41.1002C2.48103 42.9633 2.60132 48.9187 2.80309 50.8651C2.93135 53.0919 3.21331 55.0486 3.79728 57.1984C3.85526 57.4123 3.74253 57.6628 3.6272 57.8397C3.52416 57.9221 3.42457 58.0094 3.31398 58.0816C3.10984 58.215 2.86711 58.2323 2.63387 58.1674C2.32863 58.0823 2.12535 57.8669 1.96324 57.608C0.476696 55.2333 0.413753 44.8614 0.740767 41.7389C0.852861 40.6675 1.17966 39.572 1.42778 38.5233Z" fill="black"/>
<path d="M4.68951 30.1041L4.88028 29.8465C5.51211 34.0714 6.57421 37.6065 10.8282 39.3838C10.0785 39.8622 7.89799 40.129 6.91846 40.3237C5.93418 40.5194 4.06933 41.2276 3.17085 41.2543C3.06198 41.2043 2.96088 41.1773 2.89168 41.1002C3.13204 40.1653 3.36593 39.2288 3.59357 38.2907C2.98546 36.9509 1.03372 33.1486 2.5069 31.8795C3.28789 31.2065 3.88178 31.5829 4.62484 30.2251L4.68951 30.1041Z" fill="#FEFEFD"/>
<path d="M3.56272 58.2096C4.27732 58.1577 5.24628 57.5422 6.10251 57.384C8.02105 56.9434 10.072 56.6849 11.9838 56.2499C16.5068 55.2208 21.0639 55.0227 25.6858 55.0658C26.4787 55.0734 28.4531 55.5767 28.9224 55.4114L28.9642 55.5056C29.4229 56.556 29.6937 58.1896 30.6732 58.6873C31.9026 58.6927 31.8426 57.5522 31.6394 56.6744C32.8013 57.2924 34.0522 57.9287 35.1949 58.567C33.8815 59.9501 32.9358 61.9736 31.8454 63.6335L30.9433 65.0056C28.7428 64.8831 27.3502 65.3192 26.0803 67.1817C22.9029 67.0761 18.775 68.6995 18.4663 72.3018C18.3866 72.8457 18.4874 72.7759 18.1706 73.0609C17.7521 73.1268 17.5495 73.0981 17.1212 73.0727C15.7025 75.3023 7.03764 74.0762 4.7341 73.0031C4.01152 72.6664 2.8175 71.9686 2.60086 71.1624C2.02465 69.0162 5.69553 68.2604 7.16418 67.814C5.33963 66.025 3.95311 64.3097 3.1096 61.8609C2.74012 60.7885 2.61358 60.0603 3.82915 59.7259C3.43855 59.146 3.47412 58.9208 3.56272 58.2096Z" fill="#FAE04E"/>
<path d="M3.82915 59.7259C4.43576 59.9618 4.64766 60.1588 4.89858 60.791C5.60995 62.5826 6.24889 64.3242 7.83158 65.5632C8.16204 65.396 15.022 64.3168 15.5616 64.3123C18.7103 64.2864 29.4074 62.6059 31.8454 63.6335L30.9433 65.0056C28.7428 64.8831 27.3502 65.3192 26.0803 67.1817C22.9029 67.0761 18.775 68.6995 18.4663 72.3019C18.3866 72.8457 18.4874 72.7759 18.1706 73.0609C17.7521 73.1268 17.5495 73.0982 17.1212 73.0727C15.7025 75.3023 7.03764 74.0762 4.7341 73.0031C4.01152 72.6664 2.8175 71.9686 2.60086 71.1624C2.02465 69.0162 5.69553 68.2604 7.16418 67.814C5.33963 66.025 3.95311 64.3097 3.1096 61.8609C2.74012 60.7885 2.61358 60.0603 3.82915 59.7259Z" fill="#FEFEFD"/>
<path d="M3.82915 59.7259C4.43576 59.9618 4.64766 60.1588 4.89858 60.791C5.60995 62.5826 6.24889 64.3242 7.83158 65.5632C8.35799 65.9569 8.82361 66.2709 9.27134 66.7547C8.9827 68.1054 8.68198 69.2029 8.7044 70.5952C9.09759 71.254 9.23728 71.4747 9.73718 72.0559C11.9927 72.2385 13.9437 72.2426 16.1947 71.9953C16.7789 71.9313 16.9918 72.6064 17.1212 73.0727C15.7025 75.3023 7.03764 74.0762 4.7341 73.0031C4.01152 72.6664 2.8175 71.9686 2.60086 71.1624C2.02465 69.0162 5.69553 68.2604 7.16418 67.814C5.33963 66.025 3.95311 64.3097 3.1096 61.8609C2.74012 60.7885 2.61358 60.0603 3.82915 59.7259Z" fill="black"/>
<path d="M59.2549 26.2608C59.5707 24.5656 60.3616 24.8182 61.8294 24.6949C66.4889 24.3037 70.5932 25.344 69.2701 31.0481C69.2072 31.3139 69.1377 31.5784 69.0621 31.8409C70.673 34.4568 73.5672 39.5453 73.3581 42.8376C73.3059 43.6568 72.5129 43.8484 71.7745 43.5662C71.3464 42.9409 71.2626 41.4795 70.9879 40.4951C70.781 40.6451 70.5156 40.7999 70.258 40.8141C67.6991 40.9551 65.2922 41.0118 62.7343 41.3073C63.0299 38.4265 62.768 36.2225 62.1239 33.4163C62.6059 33.3029 63.3353 33.055 63.8402 32.916C64.4735 32.7414 66.1586 32.6898 66.5188 32.3329C66.1588 31.9371 65.9333 31.6879 65.9103 31.1416C66.3039 30.5352 66.7193 30.6708 67.2425 30.371C67.7909 30.0567 67.4973 27.9234 67.0875 27.5762C65.3485 26.103 62.702 26.8379 60.6449 26.8598C59.924 26.8676 59.7337 26.7745 59.2549 26.2608Z" fill="#FAE04E"/>
<path d="M59.2549 26.2608C59.5707 24.5656 60.3616 24.8182 61.8294 24.6949C66.4889 24.3037 70.5932 25.344 69.2701 31.0481C69.2072 31.3139 69.1377 31.5784 69.0621 31.8409C70.673 34.4568 73.5672 39.5453 73.3581 42.8376C73.3059 43.6568 72.5129 43.8484 71.7745 43.5662C71.3464 42.9409 71.2626 41.4795 70.9879 40.4951C70.1817 38.082 68.5361 33.7955 66.5188 32.3329C66.1588 31.9371 65.9333 31.6879 65.9103 31.1416C66.3039 30.5352 66.7193 30.6708 67.2425 30.371C67.7909 30.0567 67.4973 27.9234 67.0875 27.5762C65.3485 26.103 62.702 26.8379 60.6449 26.8598C59.924 26.8676 59.7337 26.7745 59.2549 26.2608Z" fill="black"/>
<path d="M68.9143 49.5415C69.2002 49.9815 69.5591 50.9964 69.2666 51.4702C69.1228 51.456 69.0943 51.485 68.9995 51.3811C68.5569 50.8968 67.6425 51.1082 67.0596 51.1958C63.379 51.7483 61.7267 53.4249 62.9141 57.24C61.6603 57.9428 61.221 58.6475 60.412 59.8083C59.0255 58.9398 58.8116 59.774 57.2548 59.4358C55.4565 59.0452 53.9258 57.9022 52.458 56.8613C54.627 55.6097 57.4322 53.1788 59.0024 51.1753C59.8509 51.4598 61.8606 50.6413 62.8168 50.3727C64.9158 49.7832 66.771 49.7071 68.9143 49.5415Z" fill="#FAE04E"/>
<path d="M70.9879 40.4951C71.2626 41.4795 71.3464 42.9409 71.7745 43.5662L71.6062 43.7947C69.4652 41.7229 66.2955 44.015 66.9351 46.6051C67.1452 47.4557 68.3768 48.7543 68.9144 49.5415C66.771 49.7071 64.9159 49.7832 62.8169 50.3727C61.8606 50.6413 59.8509 51.4598 59.0024 51.1753C61.171 48.125 62.1935 44.9573 62.7343 41.3073C65.2922 41.0118 67.699 40.9551 70.258 40.8141C70.5156 40.7999 70.781 40.6451 70.9879 40.4951Z" fill="#FEFEFD"/>
<path d="M51.1821 70.1283C51.0424 70.2869 50.8165 70.617 50.8508 70.8185C51.1472 72.5512 51.5434 74.0057 51.6542 75.7731C51.8838 79.4364 51.5309 82.4561 47.0807 82.7143C45.3853 82.8128 44.3236 81.8322 43.1412 80.8005C40.1153 78.1338 38.3684 75.0466 38.2684 70.9384C38.2011 69.5432 38.7344 67.8631 39.7398 66.8883C41.7157 65.0207 45.5767 64.0066 47.7563 66.0564C48.791 67.0295 49.1185 68.7405 50.63 68.6678C50.8051 69.211 50.965 69.6083 51.1821 70.1283Z" fill="#FAE04E"/>
<path d="M48.1339 76.4549C48.2289 76.4483 48.7153 76.4338 48.792 76.4905C51.3835 78.3993 46.4557 78.877 45.4759 79.0409C44.6896 79.0258 43.8695 78.8016 44.0355 77.819C44.7227 76.9111 46.9327 76.7074 48.1339 76.4549Z" fill="black"/>
<path d="M62.6006 64.3826C68.929 63.9758 69.1959 67.6543 67.5599 72.7759C66.5427 75.9605 64.0044 80.2575 60.9172 81.7764C52.9174 84.0028 55.0342 70.9533 57.8159 67.4167C59.1168 65.7624 60.454 64.7075 62.6006 64.3826Z" fill="#FAE04E"/>
<path d="M58.2021 75.1495C59.2911 75.0258 62.4703 75.0391 63.4834 75.6259C64.1077 75.9872 63.5906 76.7507 63.2047 77.1657C62.3657 77.4561 56.2089 77.6266 58.2021 75.1495Z" fill="black"/>
<path d="M29.4515 67.0586C33.4061 66.978 35.624 70.8006 35.0056 74.3773C34.3436 74.7321 33.6398 74.8253 32.9439 75.1734C32.1407 75.5534 31.3166 76.096 30.5138 76.4592C29.9999 76.6918 29.1825 76.7988 28.7912 76.3247C28.6018 76.0954 28.4696 75.6328 28.5746 75.3523C29.0019 74.209 31.2099 74.8408 31.3438 73.5556C30.9232 72.3924 29.976 72.4702 28.9223 72.4842C27.2512 73.0048 26.7962 73.9397 26.5735 75.5748C24.342 75.6073 21.9423 75.7481 20.5445 73.6659C20.5105 73.3829 20.4868 73.0986 20.4741 72.8136C20.4441 72.0455 20.6978 71.2641 21.2512 70.7618C23.2551 68.9433 25.924 69.2354 28.3894 69.5212C28.5901 69.5445 29.1351 69.2783 29.2407 69.0819C29.5548 68.4971 28.6675 68.0783 28.6022 67.4505C28.9115 67.1362 28.9613 67.2048 29.4515 67.0586Z" fill="#FEFEFD"/>
<path d="M44.7322 60.8027C47.2487 60.3746 49.2259 59.9014 51.8013 60.7643C53.2688 61.2845 54.5295 61.7768 55.4771 63.1013C56.2068 63.7952 56.5247 64.4246 56.8507 65.3707C54.6571 68.2557 54.135 69.7959 53.5154 73.3398L53.4758 73.2238C53.0179 71.841 53.207 69.6239 51.1822 70.1283C50.9651 69.6083 50.8051 69.2111 50.6301 68.6678C50.7187 68.5422 50.8077 68.5025 50.9422 68.4046C50.7911 67.6443 49.089 66.4578 49.7206 65.1312C48.6743 63.9709 48.0263 63.605 46.5302 63.1332C45.0504 62.8333 44.7665 62.7665 43.2515 62.8922C43.0745 62.5761 43.3256 62.2095 43.1874 61.4839C43.7236 61.2133 44.1806 61.0271 44.7322 60.8027Z" fill="#EC4B66"/>
<path d="M51.8013 60.7643C53.2689 61.2845 54.5295 61.7769 55.4772 63.1013C54.3252 65.7549 53.0719 65.474 51.6946 63.1882C51.6403 62.3462 51.6515 61.5949 51.8013 60.7643Z" fill="#FEFEFD"/>
<path d="M44.7322 60.8027C45.6831 61.0622 46.8144 62.1243 46.5302 63.1332C45.0504 62.8333 44.7665 62.7665 43.2515 62.8922C43.0745 62.5762 43.3256 62.2095 43.1874 61.4839C43.7236 61.2134 44.1806 61.0271 44.7322 60.8027Z" fill="#FEFEFD"/>
<path d="M49.7208 65.1313C50.5259 66.0815 51.089 66.7629 50.9754 68.0841C50.9659 68.1912 50.9549 68.2979 50.9424 68.4046C50.7913 67.6443 49.0892 66.4579 49.7208 65.1313Z" fill="#1A0000"/>
<path d="M68.7366 45.8635C69.1645 45.3132 69.2516 45.239 69.817 44.8275C70.8655 45.9241 71.9647 47.4594 72.8619 48.7021C72.8289 50.119 72.5108 53.3381 73.4362 54.3676C74.312 54.7397 74.6824 53.9158 74.8917 53.2199C75.5621 52.999 77.9215 53.6994 78.6447 54.0346C79.6393 54.4954 79.5106 55.5649 79.5166 56.5623C76.4041 57.9611 74.8335 57.3219 71.8045 57.633L71.1206 58.3873C70.8341 58.3541 70.4551 58.2823 70.1626 58.2353C69.8468 57.7447 69.8748 57.6479 69.2272 57.5136C67.3794 57.1307 66.2261 57.0919 64.6029 56.0329C64.6008 55.3135 64.5833 54.7638 64.6909 54.0507C66.3906 53.276 67.834 53.2391 69.2654 52.6198L69.2658 52.7765C69.2749 53.5987 69.4184 54.146 70.1535 54.6168C71.5959 54.5105 71.3954 50.9873 71.2745 50.0145C71.1199 48.7689 69.443 46.8907 68.7366 45.8635Z" fill="#FEFEFD"/>
<path d="M70.1625 58.2353C70.455 58.2823 70.834 58.3541 71.1205 58.3873C71.5413 60.3123 75.6558 59.5513 77.1863 59.4151C77.1303 59.9161 77.0999 60.3864 76.9602 60.8699C76.741 62.7993 76.4806 64.7234 76.1794 66.6415C76.1613 66.826 76.1236 67.3893 76.1572 67.5473C76.4527 68.9306 74.6176 68.9711 73.6241 69.0869C72.7431 69.1897 71.6016 69.0554 70.6381 68.9267C70.6411 68.8459 70.6432 68.7648 70.6447 68.684C70.6831 66.3026 69.9756 64.9877 68.3625 63.3104C69.294 61.8176 69.2843 61.2666 69.3934 59.5104L69.6827 59.2791C70.2097 58.8624 70.2738 58.9193 70.1625 58.2353Z" fill="#EC4B66"/>
<path d="M72.5157 62.5326C73.3866 61.1014 75.3597 59.8669 76.9602 60.8699C76.741 62.7992 76.4806 64.7234 76.1795 66.6415C75.4159 66.6493 74.6522 66.6413 73.8889 66.6176C72.37 65.446 72.4394 64.2778 72.5157 62.5326Z" fill="#FEFEFD"/>
<path d="M64.2648 58.9678C65.0066 58.9122 66.5097 59.167 66.985 59.7677C67.8462 60.8566 66.6231 61.9085 65.9145 62.5723C63.8412 62.2271 63.1322 62.1681 61.0753 62.5371C60.4191 62.6684 59.919 63.0043 59.3372 63.3369L59.2615 63.2879C58.8998 59.6994 61.1206 61.8156 61.7009 61.3832C62.7813 60.5781 62.2904 59.5461 64.2648 58.9678Z" fill="#FEFEFD"/>
<path d="M39.8149 64.0019C40.9594 62.5938 41.5371 62.2097 43.1875 61.4839C43.3257 62.2095 43.0745 62.5761 43.2515 62.8922C43.1909 62.912 42.3677 63.0316 42.1972 63.0713C41.3146 63.2772 40.6278 63.6136 39.8149 64.0019Z" fill="#EC4B66"/>
<path d="M7.97575 78.8872C8.06219 78.4362 8.054 78.2271 8.34157 77.8962C9.35451 77.4791 19.2505 77.2881 20.7336 77.4203C22.2152 78.3772 22.639 79.8823 22.5439 81.5512C22.4515 83.1776 23.6797 87.6002 20.9106 86.5538C20.8166 86.9425 20.7485 86.9645 20.4419 87.215C20.6377 87.4368 20.9196 87.8513 20.7851 88.1574C19.9356 90.0242 15.9845 92.8783 13.8176 92.3629C11.02 91.6977 6.04902 89.8584 4.20722 87.4879C3.28222 86.2975 3.5907 82.587 3.68016 81.0278C3.77436 79.3837 6.39048 76.3468 7.71599 79.0258L7.97575 78.8872Z" fill="#FAE04E"/>
<path d="M20.4419 87.2149C20.6377 87.4368 20.9196 87.8513 20.7851 88.1574C19.9356 90.0242 15.9845 92.8783 13.8176 92.3629C11.02 91.6976 6.04902 89.8584 4.20722 87.4878C3.28222 86.2975 3.5907 82.587 3.68016 81.0278C3.77436 79.3836 6.39048 76.3467 7.71599 79.0258L7.68128 79.1405C7.57372 79.4858 7.57005 79.5962 7.29758 79.8357C6.82872 79.9719 6.18073 80.0461 5.95891 80.5141C5.40297 81.687 5.53274 84.9549 5.6942 86.1819C6.09644 86.628 6.30317 86.8735 6.78733 87.2475C7.54979 86.4074 7.94535 86.0211 9.2478 85.8806C10.4524 85.7504 12.0357 87.3557 11.1237 88.4801C10.8068 88.8707 10.2021 88.7304 9.77616 88.5023C9.66752 88.2923 9.56641 88.1003 9.44915 87.8948C9.12256 87.8513 9.24867 87.8785 8.86647 88.0438L8.85569 88.2018C9.78068 89.1003 13.0234 90.2579 14.3869 90.3629C16.8638 90.5534 18.6152 86.5838 20.4419 87.2149Z" fill="black"/>
<path d="M7.97583 78.8872C8.06227 78.4362 8.05409 78.2271 8.34165 77.8962C9.3546 77.4791 19.2506 77.2881 20.7337 77.4203C22.2153 78.3772 22.6391 79.8823 22.544 81.5512C22.4515 83.1776 23.6798 87.6002 20.9107 86.5538C20.3213 85.0899 20.9934 80.806 20.1083 79.4893C19.4267 79.1603 16.8179 79.4485 15.8481 79.5013C15.1639 81.1269 13.9628 80.8245 12.4333 80.7092C11.7991 80.3076 11.6905 80.1284 11.2779 79.4873C10.0392 79.6977 8.61714 80.2343 7.97583 78.8872Z" fill="black"/>
<path d="M6.98208 80.7143C7.17717 80.7622 13.3756 83.1118 13.5659 83.239C13.7547 83.3653 13.8698 83.5313 13.8871 83.7585C13.9214 84.2103 13.67 84.5055 13.3982 84.8299C11.5458 84.8273 9.1649 83.8247 7.48758 83.0487C6.31124 82.5044 6.20992 81.6716 6.98208 80.7143Z" fill="black"/>
<path d="M14.6444 84.0343C16.3345 84.0319 15.984 85.9739 15.9322 87.1723C15.893 88.0813 15.8068 88.7491 15.0909 89.356C13.6302 89.3137 13.7675 87.9738 13.8408 86.8213C13.9113 85.7135 13.7783 84.8105 14.6444 84.0343Z" fill="black"/>
<path d="M18.0431 81.0782C18.5408 81.1383 18.7799 81.2392 19.108 81.6378C19.4777 82.8557 17.2134 83.8333 16.3285 84.1916C15.9374 84.1526 15.5856 83.8976 15.3483 83.596C15.0109 82.4393 17.1821 81.4403 18.0431 81.0782Z" fill="black"/>
<path d="M24.7637 88.0345C24.992 87.1783 25.558 84.9664 26.4632 84.5738C27.1304 84.2845 30.0698 84.5117 30.5307 84.914C31.9291 86.1341 32.0826 90.1626 29.5447 90.3859C28.7286 90.4577 28.5231 89.642 28.6796 89.0136L28.4391 89.0119C27.4134 91.1501 25.4194 89.6026 24.7637 88.0345Z" fill="black"/>
<path d="M26.9905 87.7338L27.3682 86.5059C29.3826 86.4609 30.3824 87.2824 28.6797 89.0136L28.4391 89.0119C28.05 88.318 27.6816 88.1352 26.9905 87.7338Z" fill="#ADC07E"/>
</svg>